<svg xmlns="http://www.w3.org/2000/svg" width="320" height="320"><g><path d="M189 260V282L153 269V248Z" fill="#99745a"/><path fill="#99745a" d="M163 298 177 293V279L161 270"/><path d="M195 263 192 264 193 275 195 282 194 288 188 284 181 280 174 278 171 276H165L159 274H150L149 268 151 248 154 259 155 267H165L186 275V267L185 266V259Z" fill="#000"/><path d="M178 279 179 281 178 284V289 294 297L169 302 160 298V287L156 280 159 274 164 275 162 280 163 293 169 296 175 293 173 285 174 278Z" fill="#000"/><path fill="#99745a" d="M110 253 142 253 142 269 109 269Z"/><path fill="#99745a" d="M122 272 134 272 134 286 122 286Z"/><path fill="#000" d="M148 255 148 276 135 273 117 272 103 278 104 256 110 253 109 266 120 265 132 265 142 269 142 254Z"/><path fill="#000" d="M138 273 139 288 137 289 116 290 117 272 122 272 123 286 128 284 132 285 133 284 132 283 134 283 132 273Z"/></g><g fill="none"><path fill="#a59e83" d="M216 260 154 250 92 249 143 167Z"/><path fill="#000" d="M135 226H145L148 225H151L156 226 161 240H157L155 239H146L144 238H132L130 239 127 238Z"/><path d="M222 250 218 252 217 254 225 267 229 272 230 275 215 270 203 267 192 262 179 259 174 255 156 253 148 255 142 254 124 253H111L104 256 94 257 88 258 81 262 84 253 88 247 89 240 97 241 94 249 109 246H127L135 244 143 246 155 245 165 247 198 255H204L212 260 211 255 206 250Z" fill="#000"/></g><g><path d="M193 175 225 248 172 256 148 206 120 249 78 233 111 178Z" fill="#a59e83"/><path d="M197 180 205 200 209 206 216 222 218 228 225 242 226 245 232 251 222 250 171 258 161 241 158 232 152 224 147 213 137 224 126 241 120 253 110 247 103 245 98 242H93L82 238 79 235 74 234 79 224 88 214 107 181H112L111 185 109 187 108 190 106 198 97 225 93 228 105 236 107 239 112 240 114 241V243L120 234 148 200 158 224 172 240 176 242 178 248 201 245 203 234 193 183 191 178Z" fill="#000"/><g><path d="M153 183Q162 183 166 191 172 207 155 215 139 222 132 212 125 196 142 185 147 182 153 183" fill="#000"/><path fill="#a59e83" d="M153 191Q159 193 159 202 156 211 148 212 142 212 140 207 137 196 145 193 148 191 153 191Z"/></g></g><g><path d="M163 29 252 179 76 176" fill="#a59e83"/><path d="M163 29 168 37 173 43 174 46 177 50 182 60 188 69 207 97 211 106 219 116 220 121 232 136 237 147 244 157 250 170 258 182 251 180 247 183 235 181H205L202 182 197 180H177L170 179 144 181H105L87 182 71 185 76 169 93 140 121 98 129 82 137 73 147 56 163 29 165 33 160 44 159 48 158 50 155 53 153 55 151 61 146 63 140 77 123 100 77 176 125 175 201 178 217 176 250 179 168 41Z" fill="#000"/><path d="M160 53 178 80 212 128 231 168 239 175 216 173 198 174 189 173 172 175 128 172H88L82 174 126 104 150 69 152 63 157 60Z" fill="#000"/><g><path fill="#a59e83" d="M121 144 126 151Q133 144 139 134L154 155 168 142 177 159 189 147Q199 156 200 159L208 156 203 164 189 151 177 164 168 147 155 160Q151 158 140 138 133 144 126 155"/><path d="M133 109Q137 114 134 119 134 123 132 125 129 131 121 129 114 122 120 114 123 110 127 109 130 108 133 109" fill="#a59e83"/><path d="M175 115Q173 115 171 117 161 121 169 136 187 142 187 127A11 12 0 00184 119Q182 115 175 115" fill="#a59e83"/></g></g><path d="M56 40"/></svg>