<svg xmlns="http://www.w3.org/2000/svg" width="16" height="16"><linearGradient id="agender" gradientUnits="userSpaceOnUse" y2="112.5%" x1="50%" x2="50%" y1="12.5%"><stop stop-color="#000" offset="0" stop-opacity=".9375"/><stop offset=".14" stop-color="#bababa" stop-opacity=".96875"/><stop offset=".29" stop-color="#fff"/><stop offset=".43" stop-color="#b9f484"/><stop offset=".57" stop-color="#fff"/><stop offset=".71" stop-color="#bababa" stop-opacity=".96875"/><stop stop-color="#000" offset="1" stop-opacity=".9375"/></linearGradient><path d="m0 0h16v6.4h-16z" fill="#d70071"/><path d="m0 6.4h16v3.2h-16z" fill="#9c4e97"/><path d="m0 9.6h16v6.4h-16z" fill="#0035a9"/><path d="M2.5 16.25Q3 13 4.5 10.25L11.5 11.25Q13 12 13.75 16.25" fill="url(#agender)" stroke="#000" stroke-width=".25"/><path d="M6.75 16Q7.25 14.25 6.5 11.5 5.25 13.75 4.75 16" fill="#000"/><path d="M11.5 11.25Q12.75 12.25 13.1875 14.25 13.25 14.5 13 14.25C11.75 12 4 11.5 4.5625 10.5" fill="#000"/><path d="M13 4.5Q13.5 5.75 14 8.5C14.25 10.5 15.5 10.75 14.5 11.25 11.75 12 5.6 10.25 3.5 10.5Q2.5 10.5 2.75 9.75 3.5 6.75 8 1.25 12.5 3.25 13 4.5" fill="url(#agender)" stroke="#000" stroke-width=".25" stroke-linejoin="round" fill-opacity="1"/><circle r=".625" cx="6.375" cy="12" fill="#fee75c" stroke-width="0"/><path d="M8 2.5Q8.5 1.5 10 7 10 8.25 11 10.25 11.25 11 9.75 10.75 7.25 10.25 6.25 9.75C5.583333 9.75 3.75 10 3.75 9.25 3.75 8.5 4 8 4.25 7.75Z" fill="#000" stroke="#000" stroke-width=".125"/><path d="M3.5 6.5 4.25 9 4.75 8 5.25 9.25 5.75 8 6.75 9.75 7.5 8.5 9 10.25 10.75 7.5 8.75 9.5 7.5 7.75 6.75 9 5.75 7.5 5.25 8.5 4.75 7.25 4.25 8Z" fill="#fee75c" stroke-width="0"/><ellipse rx="1" ry=".875" fill="#fee75c" cx="5.5" cy="6.25" stroke-width="0"/><path d="M9.5 5.25A1.75 1.25 0 008.5 5 1.75 1.25 0 008.5 7.5 1.75 1.25 0 009.875 7Z" fill="#fee75c" stroke-width="0"/></svg>